<svg xmlns="http://www.w3.org/2000/svg" width="512" height="512" viewBox="0 0 128 128"><path d="M94.353 31.329l5.059-8.8a1.75 1.75 0 00-.645-2.389l-7.153-4.109a1.75 1.75 0 00-2.389.646l-5.051 8.791a50.663 50.663 0 00-14.3-3.814v-5.349h3.55a1.75 1.75 0 001.75-1.75V6.307a1.749 1.749 0 00-1.75-1.75H54.576a1.749 1.749 0 00-1.75 1.75v8.248a1.75 1.75 0 001.75 1.75h3.55v5.344a50.663 50.663 0 00-14.3 3.814l-5.051-8.791a1.749 1.749 0 00-2.389-.646l-7.153 4.109a1.75 1.75 0 00-.645 2.389l5.059 8.805a51.071 51.071 0 1060.706 0zm-2.965-11.4l4.117 2.371-4.048 7.046q-2-1.278-4.113-2.372zM56.326 8.057h15.348v4.748H56.326zm5.3 8.248h4.748v5.057C65.587 21.325 64.8 21.3 64 21.3s-1.587.024-2.374.061zM32.495 22.3l4.117-2.365 4.044 7.039q-2.115 1.092-4.113 2.372zM64 119.943a47.571 47.571 0 1147.571-47.57A47.625 47.625 0 0164 119.943z"/><path d="M98.408 92.061a39.52 39.52 0 00-.108-39.567 1.622 1.622 0 00-.08-.175 1.672 1.672 0 00-.1-.135 39.942 39.942 0 00-14.106-14.032 1.515 1.515 0 00-.15-.109 1.608 1.608 0 00-.175-.078 39.516 39.516 0 00-39.565.107 1.781 1.781 0 00-.178.082 1.617 1.617 0 00-.133.1A39.951 39.951 0 0029.778 52.36a.946.946 0 00-.186.324A39.518 39.518 0 0029.7 92.25a1.732 1.732 0 00.08.176c.022.038.055.066.079.1a39.941 39.941 0 0014.123 14.064 1.707 1.707 0 00.153.111c.044.025.092.035.137.057a39.526 39.526 0 0039.65-.113c.043-.021.089-.03.131-.055s.088-.065.133-.1a39.95 39.95 0 0014.058-14.144c.027-.039.061-.068.085-.11a1.443 1.443 0 00.079-.175zm-14.645 10.572L81.514 98.8a1.75 1.75 0 10-3.02 1.77l2.252 3.842a35.9 35.9 0 01-15 4.082v-4.465a1.75 1.75 0 00-3.5 0v4.465a35.891 35.891 0 01-14.814-3.994l2.23-3.853a1.75 1.75 0 00-3.029-1.753l-2.227 3.849a36.443 36.443 0 01-10.667-10.608l3.837-2.248a1.75 1.75 0 00-1.769-3.02l-3.842 2.252a35.9 35.9 0 01-4.083-15h4.465a1.75 1.75 0 000-3.5h-4.465a35.9 35.9 0 013.991-14.818l3.854 2.229a1.75 1.75 0 001.752-3.029l-3.848-2.227a36.44 36.44 0 0110.606-10.663l2.249 3.837a1.75 1.75 0 003.02-1.769l-2.252-3.842a35.882 35.882 0 0115-4.082v4.464a1.75 1.75 0 003.5 0v-4.464a35.9 35.9 0 0114.818 3.99L78.338 44.1a1.75 1.75 0 103.029 1.753L83.594 42a36.443 36.443 0 0110.667 10.61l-3.837 2.248a1.75 1.75 0 101.769 3.02l3.843-2.252a35.916 35.916 0 014.082 15h-4.465a1.75 1.75 0 000 3.5h4.465a35.9 35.9 0 01-3.991 14.814l-3.853-2.23a1.75 1.75 0 00-1.753 3.03l3.848 2.227a36.437 36.437 0 01-10.606 10.666z"/><path d="M90.394 72.373a1.75 1.75 0 00-1.75-1.75h-16.85a8.013 8.013 0 00-6.044-6.045V47.729a1.75 1.75 0 00-3.5 0v16.849a7.991 7.991 0 109.544 9.545h16.85a1.751 1.751 0 001.75-1.75zM64 76.866a4.494 4.494 0 114.493-4.493A4.5 4.5 0 0164 76.866z"/></svg>