<svg fill="#e92c4d" height="512" viewBox="0 0 511.977 511.977" width="512" xmlns="http://www.w3.org/2000/svg"><path d="M451.948 178.293a7.5 7.5 0 007.5-7.5v-72.45c0-14.813-11.547-27.007-26.289-27.76-88.945-4.529-136.75-40.904-157.328-62.183-5.238-5.417-12.285-8.4-19.843-8.4s-14.605 2.983-19.841 8.399c-20.58 21.279-68.385 57.654-157.332 62.184-14.74.753-26.287 12.946-26.287 27.76v209.101c0 60.221 32.401 116.339 84.561 146.455l84.849 48.979c10.503 6.067 22.275 9.1 34.051 9.1 11.773 0 23.549-3.033 34.049-9.099l84.851-48.979c52.158-30.116 84.56-86.234 84.56-146.455v-101.65c0-4.143-3.358-7.5-7.5-7.5s-7.5 3.357-7.5 7.5v101.65c0 54.879-29.528 106.02-77.06 133.465l-84.852 48.98c-16.375 9.459-36.722 9.458-53.099-.001l-84.85-48.979c-47.532-27.445-77.06-78.586-77.06-133.465V98.343c0-6.82 5.294-12.434 12.051-12.779 94.085-4.791 145.234-43.869 167.351-66.737 2.385-2.467 5.602-3.826 9.058-3.826s6.673 1.359 9.059 3.827c22.115 22.867 73.264 61.945 167.348 66.736 6.759.346 12.053 5.959 12.053 12.779v72.45a7.5 7.5 0 007.5 7.5z"/><path d="M100.438 198.293a7.5 7.5 0 00-7.5 7.5v101.65c0 45.828 24.657 88.539 64.35 111.465l84.853 48.981c4.212 2.429 9 3.713 13.847 3.713s9.635-1.284 13.85-3.715l84.852-48.98c39.692-22.925 64.349-65.636 64.349-111.464v-181.46c0-8.854-6.607-16.357-15.364-17.452-67.269-8.461-111.521-34.017-136.808-53.973a17.548 17.548 0 00-21.765.007c-25.278 19.949-69.531 45.505-136.793 53.965-8.762 1.096-15.37 8.599-15.37 17.453v44.81c0 4.143 3.358 7.5 7.5 7.5s7.5-3.357 7.5-7.5v-44.81c0-1.306.958-2.41 2.236-2.569 70.692-8.892 117.446-35.944 144.211-57.066a2.58 2.58 0 013.197-.007c26.773 21.129 73.527 48.182 144.226 57.074 1.271.158 2.23 1.263 2.23 2.568v181.46c0 40.488-21.784 78.222-56.849 98.475l-84.847 48.978c-3.873 2.234-8.837 2.232-12.704.002l-84.849-48.979c-35.066-20.254-56.851-57.987-56.851-98.476v-101.65a7.5 7.5 0 00-7.501-7.5z"/><path d="M165.073 238.39a22.65 22.65 0 0116.122 6.677l39.19 39.18a7.5 7.5 0 0010.606 0l42.93-42.93a7.5 7.5 0 00-10.606-10.607l-37.627 37.628-33.886-33.877c-7.138-7.139-16.63-11.07-26.728-11.07s-19.59 3.932-26.728 11.069c-7.143 7.144-11.077 16.639-11.077 26.737 0 10.101 3.935 19.594 11.077 26.73l60.605 60.605c7.134 7.146 16.629 11.081 26.738 11.081 10.102 0 19.594-3.936 26.723-11.076l121.217-121.219c7.145-7.139 11.08-16.632 11.08-26.731s-3.934-19.594-11.077-26.737c-7.138-7.138-16.63-11.068-26.728-11.068s-19.59 3.931-26.728 11.068l-32.11 32.109a7.5 7.5 0 0010.606 10.607l32.11-32.11c4.305-4.305 10.03-6.675 16.122-6.675 6.091 0 11.816 2.37 16.122 6.676 4.31 4.31 6.684 10.038 6.684 16.13a22.637 22.637 0 01-6.684 16.122L241.801 337.935c-4.3 4.307-10.022 6.679-16.112 6.679-6.097 0-11.823-2.372-16.127-6.684l-60.612-60.612a22.64 22.64 0 01-6.681-16.121c0-6.092 2.374-11.82 6.684-16.13a22.641 22.641 0 0116.12-6.677z"/></svg>